<svg width="80" height="81" viewBox="0 0 80 81" fill="none" xmlns="http://www.w3.org/2000/svg">
<path d="M71.8742 23.5141C68.0342 19.8641 62.6042 19.654 57.6142 19.874C51.1042 20.164 44.5443 21.4041 38.7743 24.2341C37.1643 20.6041 33.4742 17.1641 30.3642 15.2441C23.0742 10.7441 12.5242 12.0041 7.55417 19.3841C1.50417 28.3641 7.49418 38.9341 12.1942 47.0241C14.7442 51.4041 17.5342 55.6341 20.5642 59.7041C23.3742 63.4841 26.3643 68.8541 31.6443 69.1341C36.0643 69.3741 39.0643 65.5541 42.1643 63.0741C46.6243 59.5041 51.5542 56.5141 56.5942 53.8341C64.3942 49.6741 73.7742 45.884 75.4742 36.094C76.2442 31.664 75.2242 26.7041 71.8642 23.5141H71.8742Z" fill="#F2DCCA"/>
<path d="M49.2248 46.1944C52.4269 44.1683 53.4223 39.9421 51.4351 36.8012C49.4488 33.663 45.2032 32.7499 42.0011 34.7779L40.0196 36.0215L38.7714 34.0519C36.7462 30.8471 32.5191 29.8554 29.38 31.8398C26.2409 33.8269 25.3288 38.0725 27.3558 41.2746L35.8313 54.6523L49.2248 46.1944Z" stroke="#112A4E" stroke-width="2" stroke-linecap="round" stroke-linejoin="round"/>
<path d="M35.1221 17.3083L19.9016 13.8784L9.25 61.2268L45.6402 69.4135L58.7309 62.3963L67.25 24.531L51.6351 21.015" stroke="#112A4E" stroke-width="2" stroke-linecap="round" stroke-linejoin="round"/>
<path d="M42.192 20.5142L40.0344 25.2051" stroke="#112A4E" stroke-width="2" stroke-miterlimit="10" stroke-linecap="round" stroke-linejoin="round"/>
<path d="M44.967 12.9117C47.1042 13.5349 48.3311 15.773 47.7088 17.9102C47.0847 20.0492 44.8475 21.277 42.7122 20.652C40.5732 20.0316 39.3435 17.7925 39.9676 15.6526C40.5917 13.5182 42.8307 12.2894 44.967 12.9117Z" stroke="#112A4E" stroke-width="2" stroke-miterlimit="10" stroke-linecap="round" stroke-linejoin="round"/>
<path d="M44.0854 68.7737L47.0495 56.6145L54.7361 58.4026" stroke="#112A4E" stroke-width="2" stroke-miterlimit="10" stroke-linecap="round" stroke-linejoin="round"/>
</svg>
