<svg width="57" height="58" viewBox="0 0 57 58" fill="none" xmlns="http://www.w3.org/2000/svg">
<path d="M29.3872 1.5V8.59677" stroke="#112A4E" stroke-width="2" stroke-linecap="round" stroke-linejoin="round"/>
<path d="M48.8326 9.55469L43.8145 14.5728" stroke="#112A4E" stroke-width="2" stroke-linecap="round" stroke-linejoin="round"/>
<path d="M9.94165 9.55469L14.9598 14.5728" stroke="#112A4E" stroke-width="2" stroke-linecap="round" stroke-linejoin="round"/>
<path d="M20.2212 6.87158L21.5792 10.1498" stroke="#112A4E" stroke-width="2" stroke-linecap="round" stroke-linejoin="round"/>
<path d="M7.25879 19.834L10.5371 21.192" stroke="#112A4E" stroke-width="2" stroke-linecap="round" stroke-linejoin="round"/>
<path d="M38.553 6.87158L37.1951 10.1498" stroke="#112A4E" stroke-width="2" stroke-linecap="round" stroke-linejoin="round"/>
<path d="M51.5156 19.834L48.2373 21.192" stroke="#112A4E" stroke-width="2" stroke-linecap="round" stroke-linejoin="round"/>
<path d="M15.2727 23.6774C17.4242 17.9752 22.9321 13.9194 29.3872 13.9194C35.8427 13.9194 41.3509 17.9756 43.5021 23.6784" stroke="#112A4E" stroke-width="2" stroke-linecap="round" stroke-linejoin="round"/>
<path d="M1 46.7418C16.6008 35.149 35.4826 27.9456 56 26.3386" stroke="#112A4E" stroke-width="2" stroke-linecap="round" stroke-linejoin="round"/>
<path d="M10.7581 56.5C23.7813 44.8618 38.4172 36.6712 56 32.5483" stroke="#112A4E" stroke-width="2" stroke-linecap="round" stroke-linejoin="round"/>
<path d="M31.6707 56.5C39.1452 48.5161 48.0162 43.1935 56.0001 40.5322" stroke="#112A4E" stroke-width="2" stroke-linecap="round" stroke-linejoin="round"/>
<path d="M1 26.3386C10.8803 26.866 20.7444 28.6536 29.7289 31.6951" stroke="#112A4E" stroke-width="2" stroke-linecap="round" stroke-linejoin="round"/>
</svg>
