<svg width="64" height="65" viewBox="0 0 64 65" fill="none" xmlns="http://www.w3.org/2000/svg">
<path d="M23.1859 25.228C24.2184 21.4455 24.2389 16.0682 27.0093 13.0728L16.7556 7.10259C15.764 11.2531 15.856 14.8925 16.3671 19.1044C16.7352 22.1815 18.882 25.5347 22.5009 25.2382C27.868 24.8089 32.908 23.2447 34.7993 17.6732C34.9935 17.0905 35.1877 16.4566 35.2593 15.8433C35.4535 14.1769 35.3206 16.5589 34.4925 16.2522C35.6477 16.6816 33.8792 15.4855 33.9916 15.649C34.2881 16.0886 35.2695 16.4669 35.7398 16.794C39.0827 19.1249 42.2007 21.8851 45.2472 24.5839C46.0446 25.2893 46.8215 26.0152 47.578 26.7512C48.3345 27.4873 49.0501 28.2029 49.7555 28.9594C50.2973 29.5217 50.8187 30.1044 51.3299 30.7075C51.0027 29.7568 50.9312 29.7772 51.1152 30.7586C52.1375 35.8293 51.8206 41.7586 47.6598 45.3469C42.5687 49.7223 33.5316 48.9556 27.2955 49.1499C23.1246 49.2725 18.8104 49.5077 14.6394 49.2112C13.9136 49.1601 12.4824 49.3339 12.1041 48.7614C11.7054 48.148 12.3495 44.6926 12.4211 44.1099C13.3616 36.3813 15.5697 28.8367 18.4731 21.6295L7.25843 23.0914C9.64039 26.4854 7.47312 30.9631 6.58372 34.6025C5.41829 39.3562 4.80491 44.0281 6.08279 48.8227C7.53445 54.292 14.3532 54.3943 17.2974 50.2846C24.1571 40.6852 33.5929 33.1611 40.473 23.531L29.0437 20.4334C28.6961 30.8915 21.0186 39.9287 20.6608 50.5913C20.4972 55.6108 27.7045 59.0866 31.1292 54.9259C37.6106 47.0746 44.0102 39.1517 50.328 31.1676L39.8596 26.833L37.8355 46.9008C37.3857 51.3478 43.4582 54.8032 47.0669 52.1963C52.1579 48.516 57.7295 46.1341 61.972 41.3292C67.1755 35.4203 58.5269 26.7206 53.2927 32.6499C49.7862 36.6267 45.1143 38.5384 40.8717 41.6053L50.1031 46.9008L52.1273 26.833C52.6384 21.7624 44.8791 18.4195 41.6589 22.4985C35.3411 30.4826 28.9415 38.3952 22.4601 46.2567L32.9284 50.5913C33.276 40.1332 40.9535 31.096 41.3113 20.4334C41.526 13.8702 33.1738 12.7355 29.882 17.3358C23.0223 26.9352 13.5865 34.4594 6.70639 44.0895L17.921 45.5514C16.6738 40.8692 19.1683 35.9008 20.0168 31.3209C20.9573 26.281 20.9266 21.2308 17.8699 16.886C14.6599 12.3163 8.66921 13.3693 6.65527 18.3479C3.6497 25.8209 1.59487 33.5189 0.501011 41.4928C-0.419061 48.2196 -0.807526 55.9277 6.1339 59.6591C12.5744 63.1145 22.2658 61.581 29.2584 61.3153C36.2509 61.0494 44.6133 60.9779 51.2992 57.5838C56.9525 54.7112 61.4097 49.0578 62.9841 42.9343C64.3029 37.8228 64.6607 29.491 62.064 24.7577C58.2406 17.7959 49.5613 11.8461 43.3866 7.22527C38.8885 3.85167 34.1143 2.55335 28.7268 5.43624C26.3346 6.71411 24.6376 8.75872 23.7686 11.3349C23.5539 11.9687 23.2575 12.7968 23.237 13.4715C23.237 13.1648 25.118 12.7252 22.5112 12.9399L28.645 19.0737C28.2872 16.0682 27.8885 13.2977 28.5939 10.3331C29.9535 4.62862 22.6747 -0.319321 18.3402 4.36282C13.6887 9.38232 13.0856 15.6081 11.3579 21.9362C9.27237 29.5626 21.1106 32.8135 23.1859 25.1973V25.228Z" fill="#F2DCCA"/>
<path d="M60.1428 47.9946V32.0876C60.1428 29.0923 57.7507 26.6694 54.7655 26.6694V42.5764C57.7609 42.5764 60.1428 44.9993 60.1428 47.9946C60.1428 50.99 57.7507 53.4128 54.7655 53.4128H8.07701C5.08166 53.4128 2.69971 50.99 2.69971 47.9946C2.69971 44.9993 5.09189 42.5764 8.07701 42.5764V26.6694C5.08166 26.6694 2.69971 29.0923 2.69971 32.0876V47.9946" stroke="#112A4E" stroke-width="2" stroke-linecap="round" stroke-linejoin="round"/>
<path d="M50.0117 23.6025L31.416 5.39526L22.6753 13.9315V8.73819H18.6372V17.8878L12.8306 23.6025" stroke="#112A4E" stroke-width="2" stroke-linecap="round" stroke-linejoin="round"/>
<path d="M8.22119 32.6907H14.4981" stroke="#112A4E" stroke-width="2" stroke-linecap="round" stroke-linejoin="round"/>
<path d="M48.3467 32.6907H54.6236" stroke="#112A4E" stroke-width="2" stroke-linecap="round" stroke-linejoin="round"/>
<path d="M31.426 12.1628L18.5042 25.1563V41.738H28.4307V32.8645H34.4214V41.738H44.3377V25.1563L31.426 12.1628Z" stroke="#112A4E" stroke-width="2" stroke-linecap="round" stroke-linejoin="round"/>
</svg>
